<svg height="24" viewBox="0 0 24 24" width="24" xmlns="http://www.w3.org/2000/svg"><path d="m12 14.8 1.1 1 2.5 2.1a4.6 4.6 0 0 1 .7.7h7a.6.6 0 0 1 .6.3.6.6 0 0 1 -.5 1h-7.8l-2.6-2.3-1-.9c0 .1 0 .1-.1.1l-2.2 2a6.9 6.9 0 0 0 -1.3 1.1h-7.7a.6.6 0 0 1 -.6-.5.6.6 0 0 1 .5-.8h7.1l3.4-2.9z"/><path d="m6.4 16.1h-1.3a7.4 7.4 0 0 1 .1-2.1 6.6 6.6 0 0 1 2.1-3.7 6.8 6.8 0 0 1 8.4-.8 6.7 6.7 0 0 1 3.2 6.6h-1.2a6 6 0 0 0 -1.9-4.9 5.8 5.8 0 0 0 -4.2-1.4 5.3 5.3 0 0 0 -3.9 2 5.3 5.3 0 0 0 -1.3 4.3z"/><path d="m18.3 9.9a.8.8 0 0 1 -.6-.4.6.6 0 0 1 .2-.7l1.8-1.8a.5.5 0 0 1 .7-.1.7.7 0 0 1 .3.9h-.1l-1.8 1.9z"/><path d="m6.4 9.3a.5.5 0 0 1 -.4.5.6.6 0 0 1 -.7-.1l-1.8-1.8a.7.7 0 0 1 0-.9c.3-.2.6-.3.9 0l1.9 1.8a.7.7 0 0 1 .1.5z"/><path d="m1.9 16.1h-1.3a.6.6 0 0 1 -.6-.5.8.8 0 0 1 .5-.7h2.6c.5 0 .9.5.6.9a.5.5 0 0 1 -.5.3z"/><path d="m22.1 16.1h-1.3a.5.5 0 0 1 -.6-.4.7.7 0 0 1 .2-.7h2.9c.3 0 .6.2.6.4a.5.5 0 0 1 -.3.7z"/><path d="m11.4 5.4v-1.3a.6.6 0 0 1 .5-.6c.4-.1.7.1.7.4a.4.4 0 0 1 .1.3v2.4a.7.7 0 0 1 -.7.7.7.7 0 0 1 -.6-.7z"/></svg>