<svg height="24" viewBox="0 0 24 24" width="24" xmlns="http://www.w3.org/2000/svg"><path d="m22.1 16.1h-1.3a.6.6 0 0 1 -.6-.5.8.8 0 0 1 .5-.7h2.6c.5 0 .9.5.6.9a.5.5 0 0 1 -.5.3z"/><path d="m12 21.9 1-.9 2.4-2a.9.9 0 0 1 .7-.3h7.2a.7.7 0 0 1 .7.6.7.7 0 0 1 -.7.7h-7a34.7 34.7 0 0 0 -2.9 2.5 6.9 6.9 0 0 0 -1.3 1.1c-.1 0-.1 0-.1.1l-.5-.4-2.7-2.3a5.2 5.2 0 0 1 -1.1-1h-7a.6.6 0 0 1 -.6-.5.6.6 0 0 1 .5-.8h7.8l2.9 2.5z"/><path d="m18.9 16.2h-1.3a5.4 5.4 0 0 0 -1.9-4.9 5.1 5.1 0 0 0 -4.1-1.4 5.5 5.5 0 0 0 -5.2 6.2h-1.3a6.5 6.5 0 0 1 .2-2.4 7.1 7.1 0 0 1 2.4-3.5 6.8 6.8 0 0 1 7.9-.4 7 7 0 0 1 3.3 6.4z"/><path d="m18.3 10a.8.8 0 0 1 -.7-.4.6.6 0 0 1 .2-.7l1.8-1.8a.5.5 0 0 1 .8-.1.7.7 0 0 1 .1 1.1l-1.8 1.7z"/><path d="m5.7 10-.4-.2-1.8-1.8a.7.7 0 0 1 -.2-.6.8.8 0 0 1 .5-.5c.3 0 .4 0 .6.2l1.8 1.7a.7.7 0 0 1 .2.7.8.8 0 0 1 -.7.5z"/><path d="m12.6 5.5v1.2a.6.6 0 0 1 -.7.6.5.5 0 0 1 -.5-.5v-2.6a.6.6 0 1 1 1.2 0z"/><path d="m1.9 14.9h1.2c.4 0 .6.1.7.5a.7.7 0 0 1 -.6.7h-2.5a.7.7 0 0 1 -.6-.4c-.2-.5.1-.8.6-.9h1.2z"/></svg>