<svg id="Layer_1" data-name="Layer 1" xmlns="http://www.w3.org/2000/svg" xmlns:xlink="http://www.w3.org/1999/xlink" viewBox="0 0 38 38"><defs><style>.cls-1{fill:url(#linear-gradient);}.cls-2{fill:#f2dd62;}.cls-3{fill:#fff;}.cls-4{fill:url(#radial-gradient);}</style><linearGradient id="linear-gradient" x1="302.12" y1="751.01" x2="302.12" y2="789.09" gradientTransform="translate(-283.12 -751.07)" gradientUnits="userSpaceOnUse"><stop offset="0" stop-color="#5d6da8"/><stop offset="0.99" stop-color="#aeb6d3"/></linearGradient><radialGradient id="radial-gradient" cx="302.12" cy="770.05" r="9.83" gradientTransform="translate(-283.12 -751.07)" gradientUnits="userSpaceOnUse"><stop offset="0" stop-color="#fde580"/><stop offset="0.99" stop-color="#f0ce44"/></radialGradient></defs><title>dayclear</title><rect class="cls-1" x="-0.04" y="-0.06" width="38.08" height="38.08"/><polygon class="cls-2" points="31.36 31.21 25.08 27.79 25.96 34.88 21.47 29.32 19.57 36.21 17.55 29.36 13.15 35 13.91 27.89 7.69 31.42 11.11 25.14 4.02 26.03 9.58 21.53 2.69 19.63 9.54 17.61 3.9 13.22 11.01 13.97 7.48 7.76 13.76 11.17 12.88 4.08 17.37 9.64 19.27 2.75 21.29 9.6 25.68 3.97 24.93 11.07 31.14 7.54 27.73 13.82 34.82 12.94 29.26 17.43 36.15 19.33 29.3 21.35 34.94 25.75 27.83 24.99 31.36 31.21"/><polygon class="cls-3" points="32.16 22.04 28.48 23.25 30.22 26.72 26.35 26.43 26.62 30.3 23.16 28.55 21.94 32.23 19.4 29.29 16.86 32.23 15.65 28.54 12.18 30.28 12.47 26.41 8.6 26.69 10.35 23.22 6.67 22 9.61 19.47 6.67 16.93 10.36 15.71 8.62 12.24 12.49 12.53 12.21 8.66 15.68 10.41 16.9 6.73 19.43 9.67 21.97 6.74 23.19 10.42 26.66 8.68 26.37 12.55 30.24 12.28 28.49 15.74 32.17 16.96 29.23 19.5 32.16 22.04"/><circle class="cls-4" cx="19" cy="18.98" r="9.83"/></svg>