<svg id="Layer_1" data-name="Layer 1" xmlns="http://www.w3.org/2000/svg" xmlns:xlink="http://www.w3.org/1999/xlink" viewBox="0 0 38 38"><defs><style>.cls-1{fill:none;}.cls-2{clip-path:url(#clip-path);}.cls-3{fill:url(#radial-gradient);}.cls-11,.cls-13,.cls-4,.cls-7,.cls-9{stroke:#9d9d9d;stroke-miterlimit:10;}.cls-4{stroke-width:0.48px;fill:url(#linear-gradient);}.cls-5{opacity:0.4;}.cls-6{fill:url(#linear-gradient-2);}.cls-7{stroke-width:0.56px;fill:url(#linear-gradient-3);}.cls-8{fill:url(#linear-gradient-4);}.cls-11,.cls-13,.cls-9{stroke-width:0.5px;}.cls-9{fill:url(#linear-gradient-5);}.cls-10{fill:url(#linear-gradient-6);}.cls-11{fill:url(#linear-gradient-7);}.cls-12{fill:url(#linear-gradient-8);}.cls-13{fill:url(#linear-gradient-9);}.cls-14{fill:url(#linear-gradient-10);}</style><clipPath id="clip-path"><rect id="SVGID" class="cls-1" x="-0.1" y="-0.05" width="38.1" height="38.1"/></clipPath><radialGradient id="radial-gradient" cx="14.28" cy="1395.11" r="165.15" gradientTransform="translate(0 -551.87) scale(1 0.44)" gradientUnits="userSpaceOnUse"><stop offset="0.42" stop-color="#d2d2d9"/><stop offset="0.63" stop-color="#a4a6ae"/><stop offset="0.89" stop-color="#616d7c"/></radialGradient><linearGradient id="linear-gradient" x1="-19.42" y1="815.41" x2="-19.42" y2="804.06" gradientTransform="translate(55.92 -801.89)" gradientUnits="userSpaceOnUse"><stop offset="0" stop-color="#5d646c"/><stop offset="0.28" stop-color="#7b8089"/><stop offset="0.29" stop-color="#7c808a"/><stop offset="0.51" stop-color="#b1b2ba"/><stop offset="0.55" stop-color="#bcbdc4"/><stop offset="0.68" stop-color="#e6e8ef"/><stop offset="1" stop-color="#efeff6"/></linearGradient><linearGradient id="linear-gradient-2" x1="-19.19" y1="814.79" x2="-19.19" y2="808.18" gradientTransform="translate(55.92 -801.89)" gradientUnits="userSpaceOnUse"><stop offset="0" stop-color="#5d646c"/><stop offset="0.62" stop-color="#7b8089"/><stop offset="0.64" stop-color="#7c808a"/></linearGradient><linearGradient id="linear-gradient-3" x1="-1351.74" y1="819.9" x2="-1351.74" y2="804.05" gradientTransform="matrix(-1, 0, 0, 1, -1343.3, -801.89)" xlink:href="#linear-gradient"/><linearGradient id="linear-gradient-4" x1="-1351.46" y1="819.04" x2="-1351.46" y2="809.81" gradientTransform="matrix(-1, 0, 0, 1, -1343.3, -801.89)" xlink:href="#linear-gradient-2"/><linearGradient id="linear-gradient-5" x1="-1312.69" y1="819.4" x2="-1312.69" y2="806.88" gradientTransform="matrix(-1, 0, 0, 1, -1287.3, -801.89)" xlink:href="#linear-gradient"/><linearGradient id="linear-gradient-6" x1="-1312.46" y1="818.73" x2="-1312.46" y2="811.44" gradientTransform="matrix(-1, 0, 0, 1, -1287.3, -801.89)" xlink:href="#linear-gradient-2"/><linearGradient id="linear-gradient-7" x1="-1293.75" y1="821.4" x2="-1293.75" y2="809.28" gradientTransform="matrix(-1, 0, 0, 1, -1287.3, -801.89)" xlink:href="#linear-gradient"/><linearGradient id="linear-gradient-8" x1="-1293.45" y1="820.74" x2="-1293.45" y2="813.45" gradientTransform="matrix(-1, 0, 0, 1, -1287.3, -801.89)" xlink:href="#linear-gradient-2"/><linearGradient id="linear-gradient-9" x1="17.75" y1="825.34" x2="17.75" y2="812.83" gradientTransform="translate(0 -801.89)" xlink:href="#linear-gradient"/><linearGradient id="linear-gradient-10" x1="17.94" y1="824.67" x2="17.94" y2="817.38" gradientTransform="translate(0 -801.89)" xlink:href="#linear-gradient-2"/></defs><title>daycloud</title><g class="cls-2"><rect class="cls-1" x="-0.8" y="-0.05" width="38.1" height="38.1"/><rect class="cls-3" x="-172.45" y="-92.65" width="373.47" height="309.25"/><path class="cls-4" d="M27.4,13.25a91.3,91.3,0,0,0,9.4.3c3.5,0,11.4-.6,11.4-.6s3.5-.4,3.4-2.8-3.2-2.6-3.2-2.6a4.29,4.29,0,0,0-2.8-2.9,7.78,7.78,0,0,0-4-.2,5,5,0,0,0-4.5-2.2c-3.3,0-3.9,2-3.9,2a8.71,8.71,0,0,0-4.8-.1,4.67,4.67,0,0,0-3.2,2.6s-3.8.4-3.8,3.1C21.3,13.35,24.6,13.05,27.4,13.25Z"/><g class="cls-5"><path class="cls-6" d="M25.8,11.85A52.71,52.71,0,0,0,36.3,13c5.1,0,12.7-1.3,12.7-2a3.83,3.83,0,0,0-3.4-2.9A29.1,29.1,0,0,0,41.7,8c-.4-.1-.6-1.2-2.1-1.3S36.6,9.05,35,9s-2.6-2.7-5-2.6S27.8,8.75,26.7,9C22.9,10,24.9,11.45,25.8,11.85Z"/></g><path class="cls-7" d="M17.5,17.65c-3.1.3-6.3.4-9.4.4-3.5,0-11.4-.8-11.4-.8a3.94,3.94,0,0,1-3.4-4,3.84,3.84,0,0,1,3.2-3.6s.5-3.1,2.8-4.1a5.56,5.56,0,0,1,4-.3,5.15,5.15,0,0,1,4.6-3.1A3.77,3.77,0,0,1,11.8,5a6.15,6.15,0,0,1,4.8-.1,5.4,5.4,0,0,1,3.2,3.7s3.8.6,3.8,4.4C23.5,17.75,20.2,17.35,17.5,17.65Z"/><g class="cls-5"><path class="cls-8" d="M19.1,15.65c-.9.5-5.6,1.4-10.5,1.5-5.1.1-12.7-1.7-12.7-2.7s1-3.7,3.4-4.1,3.4,0,3.9-.2.6-1.7,2.1-1.8,2.9,3.4,4.5,3.2,2.6-3.8,5-3.6,2.2,3.4,3.4,3.8C22,13.05,20,15.15,19.1,15.65Z"/></g><path class="cls-9" d="M34.5,17.25a91.3,91.3,0,0,1-9.4.3c-3.5,0-11.4-.6-11.4-.6s-3.5-.4-3.4-3.1c.1-2.5,3.2-2.9,3.2-2.9a4.53,4.53,0,0,1,2.8-3.2,6.84,6.84,0,0,1,4-.2A5.25,5.25,0,0,1,24.8,5c3.3,0,3.9,2.2,3.9,2.2a7.18,7.18,0,0,1,4.8-.1A4.67,4.67,0,0,1,36.7,10s3.8.5,3.8,3.5C40.5,17.35,37.2,17,34.5,17.25Z"/><g class="cls-5"><path class="cls-10" d="M36.1,15.65a46.33,46.33,0,0,1-10.5,1.2c-5.1.1-12.7-1.4-12.7-2.1a3.93,3.93,0,0,1,3.4-3.2c2.5-.3,3.4,0,3.9-.2s.6-1.4,2.1-1.4,2.9,2.7,4.5,2.5,2.6-3,5-2.9,2.2,2.6,3.4,3C39,13.55,37,15.25,36.1,15.65Z"/></g><path class="cls-11" d="M15.5,19.25a91.3,91.3,0,0,1-9.4.3c-3.5,0-11.4-.6-11.4-.6s-3.4-.5-3.4-3.2c.1-2.5,3.2-2.8,3.2-2.8s.2-3.1,2.5-3.9a5.84,5.84,0,0,1,4.3.4s.4-2.1,3.7-2.1a6.64,6.64,0,0,1,4.8,1.9,5.67,5.67,0,0,1,4.7-.9,5.34,5.34,0,0,1,3.3,3.7s3.8.5,3.8,3.5C21.5,19.35,18.2,19,15.5,19.25Z"/><g class="cls-5"><path class="cls-12" d="M17.1,17.65a46.33,46.33,0,0,1-10.5,1.2c-5.1.1-12.7-1.4-12.7-2.1a3.93,3.93,0,0,1,3.4-3.2c2.5-.3,3.4,0,3.9-.2s.5-1.4,2-1.4,2.9,2.6,4.5,2.5,2.6-3,5-2.9,2.2,2.7,3.4,3C20,15.55,18,17.25,17.1,17.65Z"/></g><path class="cls-13" d="M8.7,23.15a91.3,91.3,0,0,0,9.4.3c3.5,0,11.4-.6,11.4-.6s3.5-.4,3.4-3.1c-.1-2.5-3.2-2.9-3.2-2.9a4.53,4.53,0,0,0-2.8-3.2,6.84,6.84,0,0,0-4-.2,5,5,0,0,0-4.6-2.4c-3.3,0-3.9,2.2-3.9,2.2a7.18,7.18,0,0,0-4.8-.1A4.33,4.33,0,0,0,6.4,16s-3.8.5-3.8,3.5C2.6,23.25,5.9,22.85,8.7,23.15Z"/><g class="cls-5"><path class="cls-14" d="M7,21.55a46.33,46.33,0,0,0,10.5,1.2c5.1.1,12.7-1.4,12.7-2.1a3.93,3.93,0,0,0-3.4-3.2c-2.5-.3-3.4,0-3.9-.2s-.6-1.4-2.1-1.4-2.9,2.7-4.5,2.5-2.6-3-5-2.9-2.2,2.7-3.4,3C4.1,19.55,6.2,21.15,7,21.55Z"/></g></g></svg>