<svg xmlns="http://www.w3.org/2000/svg" xmlns:xlink="http://www.w3.org/1999/xlink" viewBox="0 0 38 38"><defs><style>.a{fill:none;}.b{clip-path:url(#a);}.c{fill:url(#b);}.d{filter:url(#c);}.e{fill:#f3df64;}.f{fill:#fff;}.g{fill:url(#e);}.h,.l{stroke:#b1b0b5;}.h,.j,.l{stroke-miterlimit:10;}.h{stroke-width:0.45px;fill:url(#f);}.i{fill:url(#h);}.j{stroke:#9e9e9e;stroke-width:0.44px;fill:url(#i);}.k{fill:url(#k);}.l{stroke-width:0.36px;fill:url(#l);}.m{fill:url(#n);}.n,.p,.r{opacity:0.7;}.n{fill:url(#o);}.o,.q{opacity:0.8;}.o{fill:url(#p);}.p{fill:url(#q);}.q{fill:url(#r);}.r{fill:url(#s);}</style><clipPath id="a"><rect class="a" x="-0.04" y="-0.04" width="38.08" height="38.08"/></clipPath><linearGradient id="b" x1="301.53" y1="-366.01" x2="301.53" y2="-404.09" gradientTransform="matrix(1, 0, 0, -1, -282.5, -366)" gradientUnits="userSpaceOnUse"><stop offset="0" stop-color="#5e6eaa"/><stop offset="0.99" stop-color="#afb7d4"/></linearGradient><filter id="c" name="AI_GaussianBlur_4"><feGaussianBlur stdDeviation="1"/></filter><radialGradient id="e" cx="295.93" cy="-379.38" r="7.41" gradientTransform="matrix(1, 0, 0, -1, -282.5, -366)" gradientUnits="userSpaceOnUse"><stop offset="0" stop-color="#fce581"/><stop offset="0.99" stop-color="#f2cf47"/></radialGradient><linearGradient id="f" x1="-74.25" y1="21.34" x2="-74.25" y2="7.96" gradientTransform="matrix(-1, 0, 0, 1, -53.66, 0)" gradientUnits="userSpaceOnUse"><stop offset="0" stop-color="#5c646c"/><stop offset="0.28" stop-color="#7b8089"/><stop offset="0.29" stop-color="#7c818a"/><stop offset="0.51" stop-color="#b2b3bb"/><stop offset="0.55" stop-color="#bebec5"/><stop offset="0.68" stop-color="#e7e8ef"/><stop offset="1" stop-color="#f0f0f7"/></linearGradient><linearGradient id="h" x1="-144.91" y1="12.14" x2="-144.91" y2="20.02" gradientTransform="matrix(-1, 0, 0, 1, -122.7, 0)" gradientUnits="userSpaceOnUse"><stop offset="0" stop-color="#9d9eb4"/><stop offset="0.86" stop-color="#72747e"/><stop offset="1" stop-color="#6b6d74"/></linearGradient><linearGradient id="i" x1="19.36" y1="26.51" x2="19.36" y2="13.51" gradientTransform="matrix(1, 0, 0, 1, 0, 0)" xlink:href="#f"/><linearGradient id="k" x1="-141.9" y1="17.59" x2="-141.9" y2="25.47" xlink:href="#h"/><linearGradient id="l" x1="-81.56" y1="26.29" x2="-81.56" y2="15.58" xlink:href="#f"/><linearGradient id="n" x1="28.66" y1="18.8" x2="28.66" y2="25.7" gradientTransform="matrix(1, 0, 0, 1, 0, 0)" xlink:href="#h"/><radialGradient id="o" cx="20.02" cy="29.73" r="2.34" gradientTransform="translate(37.21 -1.72) rotate(62.61)" gradientUnits="userSpaceOnUse"><stop offset="0" stop-color="#fff"/><stop offset="0.42" stop-color="#f9f9fc"/><stop offset="1" stop-color="#e9e7f4"/></radialGradient><radialGradient id="p" cx="10.42" cy="29.73" r="2.34" gradientTransform="translate(32.03 6.8) rotate(62.61)" xlink:href="#o"/><radialGradient id="q" cx="29.61" cy="29.73" r="2.34" gradientTransform="translate(42.39 -10.24) rotate(62.61)" xlink:href="#o"/><radialGradient id="r" cx="22.55" cy="34.26" r="2.34" gradientTransform="translate(42.6 -1.52) rotate(62.61)" gradientUnits="userSpaceOnUse"><stop offset="0" stop-color="#e9e7f4"/><stop offset="0.4" stop-color="#edecf6"/><stop offset="0.85" stop-color="#f9f9fc"/><stop offset="1" stop-color="#fff"/></radialGradient><radialGradient id="s" cx="12.95" cy="34.26" r="2.34" gradientTransform="translate(37.42 7) rotate(62.61)" xlink:href="#o"/></defs><title>dayrainshowers</title><g class="b"><rect class="c" x="-0.01" y="0.01" width="38.08" height="38.08"/><g class="d"><polygon class="e" points="22.74 22.59 18.01 20.02 18.67 25.36 15.29 21.17 13.86 26.37 12.33 21.2 9.02 25.45 9.59 20.09 4.91 22.75 7.48 18.02 2.14 18.69 6.33 15.3 1.13 13.87 6.3 12.35 2.05 9.04 7.41 9.61 4.75 4.92 9.48 7.5 8.81 2.15 12.2 6.34 13.63 1.15 15.15 6.32 18.46 2.07 17.89 7.42 22.58 4.76 20 9.49 25.35 8.83 21.16 12.21 26.35 13.64 21.18 15.17 25.43 18.48 20.08 17.91 22.74 22.59"/></g><g class="d"><polygon class="f" points="23.34 15.68 20.57 16.6 21.88 19.21 18.96 18.99 19.17 21.91 16.56 20.59 15.64 23.37 13.73 21.15 11.82 23.36 10.9 20.58 8.29 21.89 8.51 18.98 5.59 19.19 6.91 16.58 4.13 15.65 6.35 13.75 4.14 11.83 6.92 10.92 5.61 8.3 8.52 8.52 8.31 5.61 10.92 6.92 11.85 4.15 13.75 6.37 15.67 4.16 16.58 6.93 19.2 5.62 18.98 8.54 21.89 8.33 20.58 10.94 23.35 11.86 21.14 13.77 23.34 15.68"/></g><circle class="g" cx="13.43" cy="13.38" r="7.41"/><path class="h" d="M27.49,21a53.24,53.24,0,0,1-7.19.3c-2.67,0-8.69-.65-8.69-.65A3.18,3.18,0,0,1,9,17.36a3,3,0,0,1,2.42-3.07s.41-2.61,2.16-3.43a4.09,4.09,0,0,1,3.06-.27S17.6,8,20.15,8a3,3,0,0,1,3,2.36,4.19,4.19,0,0,1,3.66-.09,4.56,4.56,0,0,1,2.45,3.12,3.66,3.66,0,0,1,2.9,3.7C32.15,21.14,29.61,20.74,27.49,21Z"/><g class="d"><path class="i" d="M29.72,18.78a20.78,20.78,0,0,1-7,1.23c-3.38.09-8.71-.68-8.67-1.44s-.35-3.64,1.29-4,3.54,0,3.83-.16,1.72-2.25,2.71-2.31,2.36,2.91,3.42,2.78-.12-1.38,1.46-1.26,1.09,2.84,1.84,3.15C31.17,17.89,30.3,18.4,29.72,18.78Z"/></g><path class="j" d="M12.47,26.22a54.61,54.61,0,0,0,7.17.29c2.67,0,8.67-.63,8.67-.63a3.12,3.12,0,0,0,2.57-3.24,3,3,0,0,0-2.41-3s-.41-2.54-2.16-3.33a4.19,4.19,0,0,0-3.05-.26,3.93,3.93,0,0,0-3.46-2.55,3,3,0,0,0-3,2.29,4.28,4.28,0,0,0-3.65-.09,4.43,4.43,0,0,0-2.45,3,3.59,3.59,0,0,0-2.89,3.59C7.82,26.31,10.35,25.92,12.47,26.22Z"/><g class="d"><path class="k" d="M26.7,24.23a20.78,20.78,0,0,1-7,1.23c-3.38.09-8.71-.68-8.67-1.44s-.35-3.64,1.29-4,3.54,0,3.83-.16,1.72-2.25,2.71-2.31,2.36,2.91,3.42,2.78S22.2,19,23.78,19.11s1.09,2.84,1.84,3.15C28.15,23.34,27.29,23.85,26.7,24.23Z"/></g><path class="l" d="M33.42,26a42.59,42.59,0,0,1-5.75.24c-2.14,0-7-.52-7-.52a2.54,2.54,0,0,1-2.06-2.67,2.43,2.43,0,0,1,1.94-2.46s.33-2.09,1.73-2.74a3.27,3.27,0,0,1,2.44-.21,3.17,3.17,0,0,1,2.78-2.1,2.39,2.39,0,0,1,2.39,1.89,3.35,3.35,0,0,1,2.93-.07,3.65,3.65,0,0,1,2,2.49,2.93,2.93,0,0,1,2.32,3C37.14,26.13,35.12,25.81,33.42,26Z"/><g class="d"><path class="m" d="M22.36,24.66a17.43,17.43,0,0,0,5.85,1c2.84.08,7.3-.57,7.27-1.21s.29-3.06-1.08-3.32-3,0-3.21-.13-.61-2.17-1.44-2.22S28.41,22.06,27.53,22s-1.39-1.69-2.71-1.59S23.9,22.75,23.27,23C21.14,23.92,21.87,24.34,22.36,24.66Z"/></g><rect class="n" x="17.13" y="29.23" width="5.77" height="1" transform="translate(-15.59 33.83) rotate(-62.61)"/><rect class="o" x="7.54" y="29.23" width="5.77" height="1" transform="translate(-20.77 25.31) rotate(-62.61)"/><rect class="p" x="26.73" y="29.23" width="5.77" height="1" transform="translate(-10.41 42.34) rotate(-62.61)"/><rect class="q" x="19.66" y="33.76" width="5.77" height="1" transform="translate(-18.25 38.52) rotate(-62.61)"/><rect class="r" x="10.07" y="33.76" width="5.77" height="1" transform="translate(-23.43 30) rotate(-62.61)"/></g></svg>