<svg xmlns="http://www.w3.org/2000/svg" xmlns:xlink="http://www.w3.org/1999/xlink" viewBox="0 0 38 38"><defs><style>.a{fill:none;}.b{clip-path:url(#a);}.c{fill:url(#b);}.d,.g{fill:#fff;}.d{opacity:0.8;}.e{filter:url(#c);}.f{fill:#f3df64;}.h{fill:url(#e);}.i,.m{stroke:#b1b0b5;}.i,.k,.m{stroke-miterlimit:10;}.i{stroke-width:0.45px;fill:url(#f);}.j{fill:url(#h);}.k{stroke:#9e9e9e;stroke-width:0.44px;fill:url(#i);}.l{fill:url(#k);}.m{stroke-width:0.36px;fill:url(#l);}.n{fill:url(#n);}</style><clipPath id="a"><rect class="a" x="-0.04" y="-0.04" width="38.08" height="38.08"/></clipPath><linearGradient id="b" x1="301.62" y1="-365.9" x2="301.62" y2="-403.98" gradientTransform="matrix(1, 0, 0, -1, -282.5, -366)" gradientUnits="userSpaceOnUse"><stop offset="0" stop-color="#5e6eaa"/><stop offset="0.99" stop-color="#afb7d4"/></linearGradient><filter id="c" name="AI_GaussianBlur_4"><feGaussianBlur stdDeviation="1"/></filter><radialGradient id="e" cx="296.02" cy="-379.27" r="7.41" gradientTransform="matrix(1, 0, 0, -1, -282.5, -366)" gradientUnits="userSpaceOnUse"><stop offset="0" stop-color="#fce581"/><stop offset="0.99" stop-color="#f2cf47"/></radialGradient><linearGradient id="f" x1="-74.34" y1="21.23" x2="-74.34" y2="7.85" gradientTransform="matrix(-1, 0, 0, 1, -53.66, 0)" gradientUnits="userSpaceOnUse"><stop offset="0" stop-color="#5c646c"/><stop offset="0.28" stop-color="#7b8089"/><stop offset="0.29" stop-color="#7c818a"/><stop offset="0.51" stop-color="#b2b3bb"/><stop offset="0.55" stop-color="#bebec5"/><stop offset="0.68" stop-color="#e7e8ef"/><stop offset="1" stop-color="#f0f0f7"/></linearGradient><linearGradient id="h" x1="-145" y1="12.03" x2="-145" y2="19.91" gradientTransform="matrix(-1, 0, 0, 1, -122.7, 0)" gradientUnits="userSpaceOnUse"><stop offset="0" stop-color="#9d9eb4"/><stop offset="0.86" stop-color="#72747e"/><stop offset="1" stop-color="#6b6d74"/></linearGradient><linearGradient id="i" x1="19.45" y1="26.4" x2="19.45" y2="13.4" gradientTransform="matrix(1, 0, 0, 1, 0, 0)" xlink:href="#f"/><linearGradient id="k" x1="-141.98" y1="17.48" x2="-141.98" y2="25.36" xlink:href="#h"/><linearGradient id="l" x1="-81.65" y1="26.18" x2="-81.65" y2="15.47" xlink:href="#f"/><linearGradient id="n" x1="28.75" y1="18.69" x2="28.75" y2="25.59" gradientTransform="matrix(1, 0, 0, 1, 0, 0)" xlink:href="#h"/></defs><title>daysnowshowers</title><g class="b"><rect class="c" x="0.08" y="-0.1" width="38.08" height="38.08"/><path class="d" d="M14.88,33.73h0l-.89.51a0,0,0,0,0,0,0l0,.32,0,.27,0,.26v.17l-.57,0,0-.65-.6.35-.29-.5.6-.35-.58-.29.25-.52.1,0,.82.4h0l.91-.52h0l0,0-.88-.51h0L13,33l-.28.14h0l-.25-.52.58-.28-.6-.35.29-.5.6.35v-.1l0-.22,0-.28h0s0,0,0,0l.35,0h.19v.12l0,.3v.21l0,.28v.1a0,0,0,0,0,0,0l.89.52h0s0,0,0,0q0-.51,0-1a0,0,0,0,0,0,0l-.81-.55,0,0,.32-.48.54.36v-.69h.58V31L16,30.6l.32.48-.09.06-.76.51a0,0,0,0,0,0,0q0,.31,0,.63t0,.4s0,0,0,0h0l.89-.51a0,0,0,0,0,0,0l0-.32,0-.27,0-.31s0-.06,0-.09,0,0,0,0l.25,0H17s0,0,0,0v.21l0,.2v.2h0l.6-.34.29.5-.6.35.58.29-.25.52-.08,0-.84-.41h0l-.67.38-.23.13h0l.13.07.79.46h0l.55-.27.35-.17h0l.25.52-.58.28.6.35-.29.5-.6-.35v.1l0,.21,0,.3s0,0,0,0,0,0,0,0l-.47,0h-.09v-.06l0-.43,0-.34v-.19a0,0,0,0,0,0,0l-.9-.52h0s0,0,0,0q0,.51,0,1a0,0,0,0,0,0,0l.81.55,0,0-.32.48-.54-.37v.69h-.57V35.5l-.54.36L14,35.38l0,0,.82-.55a0,0,0,0,0,0,0q0-.38,0-.77c0-.09,0-.17,0-.26S14.88,33.74,14.88,33.73Z"/><path class="d" d="M28.83,30.93h0l-.89.51a0,0,0,0,0,0,0l0,.32,0,.27,0,.26v.17l-.57,0,0-.65-.6.35-.29-.5.6-.35L26.42,31l.25-.52.1,0,.82.4h0l.91-.52h0l0,0-.88-.51h0l-.63.3-.28.14h0l-.25-.52.58-.28-.6-.35.29-.5.6.35v-.1l0-.22,0-.28h0s0,0,0,0l.35,0h.19v.12l0,.3V29l0,.28v.1a0,0,0,0,0,0,0l.89.52h0s0,0,0,0q0-.51,0-1a0,0,0,0,0,0,0L28,28.29l0,0,.32-.48.54.36v-.69h.58v.69L30,27.8l.32.48-.09.06-.76.51a0,0,0,0,0,0,0q0,.31,0,.63t0,.4s0,0,0,0h0l.89-.51a0,0,0,0,0,0,0l0-.32,0-.27,0-.31s0-.06,0-.09,0,0,0,0l.25,0H31s0,0,0,0v.21l0,.2V29h0l.6-.34.29.5-.6.35.58.29-.25.52-.08,0-.84-.41h0l-.67.38-.23.13h0l.13.07.79.46h0l.55-.27.35-.17h0l.25.52-.58.28.6.35-.29.5-.6-.35v.1l0,.21,0,.3s0,0,0,0,0,0,0,0l-.47,0h-.09v-.06l0-.43,0-.34v-.19a0,0,0,0,0,0,0l-.9-.52h0s0,0,0,0q0,.51,0,1a0,0,0,0,0,0,0l.81.55,0,0-.32.48-.54-.37v.69h-.57V32.7l-.54.36L28,32.59l0,0,.82-.55a0,0,0,0,0,0,0q0-.38,0-.77c0-.09,0-.17,0-.26S28.83,30.94,28.83,30.93Z"/><g class="e"><polygon class="f" points="22.82 22.48 18.09 19.91 18.76 25.25 15.38 21.07 13.94 26.26 12.42 21.09 9.11 25.34 9.68 19.98 5 22.64 7.57 17.91 2.23 18.58 6.41 15.19 1.22 13.76 6.39 12.24 2.14 8.93 7.49 9.5 4.83 4.81 9.57 7.39 8.9 2.04 12.29 6.23 13.72 1.04 15.24 6.21 18.55 1.96 17.98 7.31 22.66 4.65 20.09 9.38 25.43 8.72 21.25 12.1 26.44 13.54 21.27 15.06 25.52 18.37 20.17 17.8 22.82 22.48"/></g><g class="e"><polygon class="g" points="23.43 15.57 20.66 16.49 21.97 19.1 19.05 18.88 19.26 21.8 16.65 20.48 15.73 23.26 13.82 21.04 11.9 23.25 10.99 20.48 8.38 21.78 8.59 18.87 5.68 19.08 7 16.47 4.22 15.54 6.44 13.64 4.23 11.72 7 10.81 5.7 8.2 8.61 8.41 8.4 5.5 11.01 6.81 11.93 4.04 13.84 6.25 15.76 4.04 16.67 6.82 19.28 5.51 19.07 8.43 21.98 8.22 20.66 10.83 23.44 11.75 21.22 13.66 23.43 15.57"/></g><circle class="h" cx="13.52" cy="13.27" r="7.41"/><path class="i" d="M27.58,20.93a53.24,53.24,0,0,1-7.19.3c-2.67,0-8.69-.65-8.69-.65a3.18,3.18,0,0,1-2.58-3.34,3,3,0,0,1,2.42-3.07s.41-2.61,2.16-3.43a4.09,4.09,0,0,1,3.06-.27s.92-2.63,3.47-2.63a3,3,0,0,1,3,2.36,4.19,4.19,0,0,1,3.66-.09,4.56,4.56,0,0,1,2.45,3.12,3.66,3.66,0,0,1,2.9,3.7C32.23,21,29.7,20.63,27.58,20.93Z"/><g class="e"><path class="j" d="M29.81,18.67a20.78,20.78,0,0,1-7,1.23c-3.38.09-8.71-.68-8.67-1.44s-.35-3.64,1.29-4,3.54,0,3.83-.16S21,12.09,22,12s2.36,2.91,3.42,2.78-.12-1.38,1.46-1.26,1.09,2.84,1.84,3.15C31.26,17.79,30.39,18.29,29.81,18.67Z"/></g><path class="k" d="M12.56,26.11a54.61,54.61,0,0,0,7.17.29c2.67,0,8.67-.63,8.67-.63A3.12,3.12,0,0,0,31,22.53a3,3,0,0,0-2.41-3S28.16,17,26.4,16.21A4.19,4.19,0,0,0,23.35,16a3.93,3.93,0,0,0-3.46-2.55,3,3,0,0,0-3,2.29,4.28,4.28,0,0,0-3.65-.09,4.43,4.43,0,0,0-2.45,3,3.59,3.59,0,0,0-2.89,3.59C7.91,26.2,10.44,25.81,12.56,26.11Z"/><g class="e"><path class="l" d="M26.79,24.12a20.78,20.78,0,0,1-7,1.23c-3.38.09-8.71-.68-8.67-1.44s-.35-3.64,1.29-4,3.54,0,3.83-.16S18,17.54,19,17.48s2.36,2.91,3.42,2.78-.12-1.38,1.46-1.26,1.09,2.84,1.84,3.15C28.24,23.23,27.37,23.74,26.79,24.12Z"/></g><path class="m" d="M33.51,25.94a42.59,42.59,0,0,1-5.75.24c-2.14,0-7-.52-7-.52A2.54,2.54,0,0,1,18.74,23a2.43,2.43,0,0,1,1.94-2.46s.33-2.09,1.73-2.74a3.27,3.27,0,0,1,2.44-.21,3.17,3.17,0,0,1,2.78-2.1A2.39,2.39,0,0,1,30,17.36,3.35,3.35,0,0,1,33,17.29a3.65,3.65,0,0,1,2,2.49,2.93,2.93,0,0,1,2.32,3C37.23,26,35.21,25.7,33.51,25.94Z"/><g class="e"><path class="n" d="M22.45,24.55a17.43,17.43,0,0,0,5.85,1c2.84.08,7.3-.57,7.27-1.21s.29-3.06-1.08-3.32-3,0-3.21-.13-.61-2.17-1.44-2.22S28.5,22,27.62,21.85s-1.39-1.69-2.71-1.59-.92,2.38-1.55,2.65C21.23,23.81,22,24.23,22.45,24.55Z"/></g></g></svg>