<svg id="Layer_1" data-name="Layer 1" xmlns="http://www.w3.org/2000/svg" xmlns:xlink="http://www.w3.org/1999/xlink" viewBox="0 0 38 38"><defs><style>.cls-1,.cls-10,.cls-11,.cls-12,.cls-13,.cls-14,.cls-15,.cls-9{fill:none;}.cls-2{clip-path:url(#clip-path);}.cls-3{fill:#0e0e14;}.cls-4{fill:url(#linear-gradient);}.cls-5{opacity:0.8;fill:url(#radial-gradient);}.cls-10,.cls-11,.cls-13,.cls-5,.cls-6,.cls-9{isolation:isolate;}.cls-11,.cls-6{opacity:0.3;}.cls-6{fill:url(#radial-gradient-2);}.cls-7{fill:url(#linear-gradient-2);}.cls-18,.cls-20,.cls-22,.cls-8{stroke:#9e9e9e;}.cls-10,.cls-11,.cls-12,.cls-13,.cls-14,.cls-15,.cls-18,.cls-20,.cls-22,.cls-8,.cls-9{stroke-miterlimit:10;}.cls-8{stroke-width:0.48px;fill:url(#linear-gradient-3);}.cls-10,.cls-11,.cls-12,.cls-13,.cls-14,.cls-15,.cls-9{stroke:#fff;}.cls-12,.cls-9{stroke-width:0.27px;}.cls-10,.cls-13,.cls-9{opacity:0.6;}.cls-10{stroke-width:0.22px;}.cls-11,.cls-15{stroke-width:0.7px;}.cls-13{stroke-width:0.54px;}.cls-14{stroke-width:0.32px;}.cls-16{opacity:0.4;}.cls-17{fill:url(#linear-gradient-4);}.cls-18{stroke-width:0.56px;fill:url(#linear-gradient-5);}.cls-19{fill:url(#linear-gradient-6);}.cls-20,.cls-22{stroke-width:0.5px;}.cls-20{fill:url(#linear-gradient-7);}.cls-21{fill:url(#linear-gradient-8);}.cls-22{fill:url(#linear-gradient-9);}.cls-23{fill:url(#linear-gradient-10);}.cls-24{fill:url(#radial-gradient-3);}.cls-25{fill:url(#radial-gradient-4);}.cls-26{fill:url(#radial-gradient-5);}.cls-27{fill:url(#radial-gradient-6);}.cls-28{fill:url(#radial-gradient-7);}.cls-29{fill:url(#radial-gradient-8);}</style><clipPath id="clip-path"><rect class="cls-1" width="38.1" height="38.08"/></clipPath><linearGradient id="linear-gradient" x1="-120.2" y1="78.74" x2="38" y2="78.74" gradientUnits="userSpaceOnUse"><stop offset="0" stop-color="#323945"/><stop offset="0.29" stop-color="#373c49"/><stop offset="0.61" stop-color="#445"/><stop offset="0.95" stop-color="#5a5168"/><stop offset="1" stop-color="#5e536b"/></linearGradient><radialGradient id="radial-gradient" cx="77.92" cy="-14.2" r="17.3" gradientTransform="matrix(-0.27, 0.96, -0.67, -0.19, 25.99, -61.37)" gradientUnits="userSpaceOnUse"><stop offset="0" stop-color="#cba6b2"/><stop offset="0.16" stop-color="#c9a5b1" stop-opacity="0.98"/><stop offset="0.3" stop-color="#c3a0ad" stop-opacity="0.93"/><stop offset="0.44" stop-color="#ba99a7" stop-opacity="0.84"/><stop offset="0.57" stop-color="#ac8e9e" stop-opacity="0.72"/><stop offset="0.7" stop-color="#9b8192" stop-opacity="0.56"/><stop offset="0.82" stop-color="#857184" stop-opacity="0.36"/><stop offset="0.94" stop-color="#6c5e74" stop-opacity="0.13"/><stop offset="1" stop-color="#5e536b" stop-opacity="0"/></radialGradient><radialGradient id="radial-gradient-2" cx="87.43" cy="-27.94" r="40.37" gradientTransform="matrix(0.96, 0.27, -0.19, 0.67, -59.49, 0.42)" gradientUnits="userSpaceOnUse"><stop offset="0" stop-color="#fff"/><stop offset="0.15" stop-color="#fdfdfd" stop-opacity="0.99"/><stop offset="0.27" stop-color="#f6f5f7" stop-opacity="0.94"/><stop offset="0.4" stop-color="#ebe9ec" stop-opacity="0.87"/><stop offset="0.51" stop-color="#dbd8de" stop-opacity="0.77"/><stop offset="0.63" stop-color="#c6c2cb" stop-opacity="0.65"/><stop offset="0.74" stop-color="#ada7b3" stop-opacity="0.49"/><stop offset="0.85" stop-color="#8e8798" stop-opacity="0.3"/><stop offset="0.96" stop-color="#6d6378" stop-opacity="0.09"/><stop offset="1" stop-color="#5e536b" stop-opacity="0"/></radialGradient><linearGradient id="linear-gradient-2" x1="301.59" y1="-1167.89" x2="301.59" y2="-1205.97" gradientTransform="matrix(1, 0, 0, -1, -282.5, -1167.89)" gradientUnits="userSpaceOnUse"><stop offset="0" stop-color="#5e6ea9"/><stop offset="0.99" stop-color="#aeb6d3"/></linearGradient><linearGradient id="linear-gradient-3" x1="-28.27" y1="13.6" x2="-28.27" y2="2.25" gradientTransform="translate(55.92)" gradientUnits="userSpaceOnUse"><stop offset="0" stop-color="#5c646c"/><stop offset="0.28" stop-color="#7b8089"/><stop offset="0.29" stop-color="#7c818a"/><stop offset="0.51" stop-color="#b2b3bb"/><stop offset="0.55" stop-color="#bebec5"/><stop offset="0.68" stop-color="#e7e8ef"/><stop offset="1" stop-color="#f0f0f7"/></linearGradient><linearGradient id="linear-gradient-4" x1="-29.04" y1="12.98" x2="-29.04" y2="6.36" gradientTransform="translate(55.92)" gradientUnits="userSpaceOnUse"><stop offset="0" stop-color="#5c646c"/><stop offset="0.62" stop-color="#7b8089"/><stop offset="0.64" stop-color="#7c818a"/></linearGradient><linearGradient id="linear-gradient-5" x1="-536.5" y1="15.06" x2="-536.5" y2="-0.79" gradientTransform="matrix(-1, 0, 0, 1, -527.3, 0)" xlink:href="#linear-gradient-3"/><linearGradient id="linear-gradient-6" x1="-536.24" y1="17.2" x2="-536.24" y2="7.97" gradientTransform="matrix(-1, 0, 0, 1, -527.3, 0)" xlink:href="#linear-gradient-4"/><linearGradient id="linear-gradient-7" x1="-501.95" y1="22.72" x2="-501.95" y2="10.2" gradientTransform="matrix(-1, 0, 0, 1, -471.3, 0)" xlink:href="#linear-gradient-3"/><linearGradient id="linear-gradient-8" x1="-501.72" y1="22.04" x2="-501.72" y2="14.75" gradientTransform="matrix(-1, 0, 0, 1, -471.3, 0)" xlink:href="#linear-gradient-4"/><linearGradient id="linear-gradient-9" x1="-478.5" y1="19.56" x2="-478.5" y2="7.44" gradientTransform="matrix(-1, 0, 0, 1, -471.3, 0)" xlink:href="#linear-gradient-3"/><linearGradient id="linear-gradient-10" x1="-478.24" y1="18.9" x2="-478.24" y2="11.61" gradientTransform="matrix(-1, 0, 0, 1, -471.3, 0)" xlink:href="#linear-gradient-4"/><radialGradient id="radial-gradient-3" cx="22.04" cy="26.68" r="2.34" gradientTransform="translate(35.68 -5.18) rotate(62.67)" gradientUnits="userSpaceOnUse"><stop offset="0" stop-color="#bebece"/><stop offset="0.28" stop-color="#b9b8ca"/><stop offset="0.67" stop-color="#aaa5be"/><stop offset="0.79" stop-color="#a49eb9"/></radialGradient><radialGradient id="radial-gradient-4" cx="31.63" cy="26.68" r="2.34" gradientTransform="translate(40.89 -13.71) rotate(62.67)" xlink:href="#radial-gradient-3"/><radialGradient id="radial-gradient-5" cx="18.45" cy="34.68" r="2.34" gradientTransform="matrix(0.46, 0.89, -0.89, 0.46, 40.9, 2.41)" gradientUnits="userSpaceOnUse"><stop offset="0" stop-color="#bebece"/><stop offset="1" stop-color="#bebece"/></radialGradient><radialGradient id="radial-gradient-6" cx="28.04" cy="34.68" r="2.34" gradientTransform="translate(46.09 -6.12) rotate(62.67)" gradientUnits="userSpaceOnUse"><stop offset="0" stop-color="#a49eb9"/><stop offset="0.89" stop-color="#a49eb9"/></radialGradient><radialGradient id="radial-gradient-7" cx="25.04" cy="30.68" r="2.34" gradientTransform="translate(40.89 -5.71) rotate(62.67)" gradientUnits="userSpaceOnUse"><stop offset="0" stop-color="#a49eb9"/><stop offset="0.31" stop-color="#a8a3bc"/><stop offset="0.65" stop-color="#b3b0c5"/><stop offset="0.9" stop-color="#bebece"/></radialGradient><radialGradient id="radial-gradient-8" cx="34.64" cy="30.68" r="2.34" gradientTransform="translate(46.09 -14.15) rotate(62.67)" gradientUnits="userSpaceOnUse"><stop offset="0.28" stop-color="#a49eb9"/><stop offset="0.53" stop-color="#a8a3bc"/><stop offset="0.81" stop-color="#b3b0c5"/><stop offset="1" stop-color="#bebece"/></radialGradient></defs><title>daythunderstorm</title><g class="cls-2"><rect class="cls-1" width="38.1" height="38.08"/><rect class="cls-3" width="38.1" height="38.08"/><rect class="cls-4" x="-120.2" width="158.2" height="157.48"/><ellipse class="cls-5" cx="14.6" cy="16.4" rx="12.2" ry="21.2" transform="translate(-3.58 28.7) rotate(-82.4)"/><ellipse class="cls-6" cx="29.91" cy="4.77" rx="49.5" ry="28.5" transform="translate(-0.31 2.73) rotate(-5.2)"/><rect class="cls-7" width="38.18" height="38.08"/><path class="cls-8" d="M18.6,13.3a92.15,92.15,0,0,0,9.4.3c3.5,0,11.4-.6,11.4-.6s3.5-.3,3.4-2.8-3.2-2.6-3.2-2.6a4.28,4.28,0,0,0-2.8-2.9,7.87,7.87,0,0,0-4-.2,5.29,5.29,0,0,0-4.6-2.3c-3.3,0-3.9,2-3.9,2a8.7,8.7,0,0,0-4.8-.1,4.59,4.59,0,0,0-3.2,2.7s-3.8.4-3.8,3.1S15.8,13.1,18.6,13.3Z"/><polyline class="cls-9" points="12.1 25.3 13.8 26.8 15.1 26.9 15.7 27.7 16.3 27.6"/><polyline class="cls-10" points="4.1 23.6 5.5 24.1 6 24.8 7.7 24.6"/><polyline class="cls-9" points="10.3 32.2 9.9 30.2 8.1 28.4 7.7 27.3 8.5 25.9 7.9 24.4"/><polyline class="cls-10" points="8.9 33.9 7.2 31.9 7 31.7 7.1 30.2 6.5 29.7 6.5 33.1 6.6 34.3 6.9 35"/><polyline class="cls-11" points="3.2 38.7 3 37.3 2.2 36.8 1.8 35.5"/><polyline class="cls-9" points="4.4 32.3 5.4 35.1 5.4 37.6"/><polyline class="cls-12" points="3.4 33.6 3.8 35.6 4.6 36.9 4.8 37.9"/><line class="cls-13" x1="-0.1" y1="37.6" x2="4.2" y2="32.4"/><polyline class="cls-9" points="7.1 26.8 5.6 27.9 4.4 27.9"/><polyline class="cls-14" points="11.9 25.4 12.1 27.6 12.7 28.5 12 29.9 12.7 31.2 13.7 32.3"/><path class="cls-15" d="M8.9,19a9.84,9.84,0,0,1,2.3,3.4,7,7,0,0,1,.8,3"/><polyline class="cls-13" points="10.3 21.2 7.8 24.3 7.1 26.8 6.6 29.4 5.3 30.8 4.2 32.3 1.9 32.6"/><g class="cls-16"><path class="cls-17" d="M16,11.9A52.14,52.14,0,0,0,26.5,13c5.1,0,12.7-1.3,12.6-2a3.59,3.59,0,0,0-3.4-2.9A29.88,29.88,0,0,0,31.8,8c-.4-.2-.5-1.3-2-1.3S26.9,9.1,25.3,9s-2.6-2.7-5-2.6S18,8.8,16.9,9C13.1,10,15.1,11.5,16,11.9Z"/></g><path class="cls-18" d="M18.2,14.7c-3.1.3-6.3.4-9.4.4s-11.4-.8-11.4-.8a3.9,3.9,0,0,1-3.3-4A3.7,3.7,0,0,1-2.8,6.7S-2.2,3.6.1,2.6a6.68,6.68,0,0,1,4-.3A5.09,5.09,0,0,1,8.6-.8,3.9,3.9,0,0,1,12.5,2a6.2,6.2,0,0,1,4.8-.1,5.38,5.38,0,0,1,3.2,3.7s3.8.6,3.8,4.4S21,14.4,18.2,14.7Z"/><g class="cls-16"><path class="cls-19" d="M19.8,15.7A39.7,39.7,0,0,1,9.3,17.2c-5.1.1-12.7-1.7-12.6-2.7s1-3.7,3.4-4.1,3.5,0,3.9-.2.6-1.7,2.1-1.8,2.9,3.4,4.5,3.2,2.6-3.8,5-3.6,2.2,3.3,3.3,3.8C22.8,13.1,20.7,15.2,19.8,15.7Z"/></g><path class="cls-20" d="M39.7,22.4a92.15,92.15,0,0,1-9.4.3c-3.5,0-11.4-.6-11.4-.6s-3.5-.4-3.4-3.1,3.2-2.8,3.2-2.8a4.93,4.93,0,0,1,2.8-3.3,7.87,7.87,0,0,1,4-.2,5.41,5.41,0,0,1,4.6-2.6c3.3,0,3.9,2.3,3.9,2.3a7.19,7.19,0,0,1,4.8-.1A4.7,4.7,0,0,1,42,15.2s3.8.5,3.8,3.5S42.5,22.1,39.7,22.4Z"/><g class="cls-16"><path class="cls-21" d="M41.3,20.8A45.83,45.83,0,0,1,30.8,22c-5.1.1-12.7-1.3-12.6-2.1a3.91,3.91,0,0,1,3.4-3.2c2.5-.3,3.4,0,3.9-.2s.5-1.4,2-1.4,2.9,2.7,4.5,2.6,2.7-3,5-2.9,2.3,2.6,3.4,3C44.2,18.8,42.2,20.4,41.3,20.8Z"/></g><path class="cls-22" d="M16.2,19.3a92.15,92.15,0,0,1-9.4.3C3.3,19.6-4.6,19-4.6,19s-3.4-.5-3.3-3.2S-4.8,13-4.8,13s.2-3.1,2.5-3.9A5.79,5.79,0,0,1,2,9.5s.4-2,3.7-2a6,6,0,0,1,4.8,1.8,5.74,5.74,0,0,1,4.7-.9,5.1,5.1,0,0,1,3.3,3.7s3.8.5,3.8,3.5S19,19,16.2,19.3Z"/><g class="cls-16"><path class="cls-23" d="M17.8,17.7A45.83,45.83,0,0,1,7.3,18.9C2.2,19-5.4,17.5-5.3,16.8a4.2,4.2,0,0,1,3.4-3.3A29.88,29.88,0,0,1,2,13.4c.5-.2.6-1.4,2.1-1.4S7,14.6,8.6,14.5s2.6-3,5-2.9,2.2,2.7,3.3,3C20.8,15.6,18.7,17.3,17.8,17.7Z"/></g><rect class="cls-24" x="19.18" y="26.17" width="5.8" height="1" transform="translate(-11.76 33.99) rotate(-62.6)"/><rect class="cls-25" x="28.79" y="26.14" width="5.8" height="1" transform="translate(-6.55 42.52) rotate(-62.6)"/><rect class="cls-26" x="15.62" y="34.24" width="5.8" height="1" transform="translate(-20.85 35.2) rotate(-62.6)"/><rect class="cls-27" x="25.24" y="34.22" width="5.8" height="1" transform="translate(-15.64 43.72) rotate(-62.6)"/><rect class="cls-28" x="22.21" y="30.14" width="5.8" height="1" transform="translate(-13.65 38.83) rotate(-62.6)"/><rect class="cls-29" x="31.82" y="30.22" width="5.8" height="1" transform="translate(-8.53 47.41) rotate(-62.6)"/></g></svg>