<svg id="Layer_1" data-name="Layer 1" xmlns="http://www.w3.org/2000/svg" xmlns:xlink="http://www.w3.org/1999/xlink" viewBox="0 0 38 38"><defs><style>.cls-1{fill:#090910;}.cls-2{fill:url(#linear-gradient);}.cls-3{fill:#dedda4;}.cls-4{fill:url(#linear-gradient-2);}.cls-5,.cls-6,.cls-7{fill:#f3f2de;isolation:isolate;}.cls-5{opacity:0.4;}.cls-6{opacity:0.3;}.cls-7{opacity:0.45;}</style><linearGradient id="linear-gradient" x1="3.82" y1="23.58" x2="21.94" y2="23.58" gradientTransform="matrix(1, 0, 0, -1, 0, 37.89)" gradientUnits="userSpaceOnUse"><stop offset="0" stop-color="#efefbb"/><stop offset="0.52" stop-color="#ececb6"/><stop offset="1" stop-color="#e6e5ac"/></linearGradient><linearGradient id="linear-gradient-2" x1="14" y1="22.85" x2="21.03" y2="19.57" gradientTransform="matrix(1, 0, 0, -1, 0, 37.89)" gradientUnits="userSpaceOnUse"><stop offset="0" stop-color="#efefbb"/><stop offset="0.21" stop-color="#ebe9b6"/><stop offset="0.45" stop-color="#dddca9"/><stop offset="0.69" stop-color="#c8c693"/></linearGradient></defs><title>nightclear</title><rect class="cls-1" x="-0.04" y="-0.04" width="38.08" height="38.08"/><circle class="cls-2" cx="12.88" cy="14.31" r="9.06"/><circle class="cls-3" cx="12.43" cy="11.19" r="1.63"/><ellipse class="cls-3" cx="7.01" cy="12.38" rx="1.26" ry="1.34"/><path class="cls-4" d="M20.3,9.15a8.55,8.55,0,0,1,1.61,6.09,9,9,0,0,1-8.46,8.06c-4,.05-1-6.13,1.33-7.47s3.45-3.08,2.86-5S20.3,9.15,20.3,9.15Z"/><circle class="cls-3" cx="12.43" cy="17.43" r="1.63"/><circle class="cls-3" cx="10.91" cy="15.91" r="1"/><circle class="cls-3" cx="16" cy="13.87" r="1.63"/><circle class="cls-5" cx="21.58" cy="31.88" r="0.75"/><circle class="cls-6" cx="26.37" cy="13.19" r="0.69"/><circle class="cls-7" cx="25.2" cy="5.13" r="0.75"/><circle class="cls-5" cx="10.1" cy="29.23" r="0.85"/></svg>