<svg xmlns="http://www.w3.org/2000/svg" width="16" height="17" fill="none" viewBox="0 0 16 17"><path fill="#0A0A0A" d="M15.755 9.835a1.149 1.149 0 0 0-.324-.214c-.69-.291-1.106-.911-1.083-1.66.024-.808.478-1.325 1.171-1.663.066-.033.14-.053.2-.092a.568.568 0 0 0 .275-.577 3.699 3.699 0 0 0-.481-1.452 1.68 1.68 0 0 0-.248-.31.555.555 0 0 0-.648-.096 2.204 2.204 0 0 1-1.084.21 1.547 1.547 0 0 1-1.06-.457 1.784 1.784 0 0 1-.398-1.923 3.14 3.14 0 0 0 .105-.333.371.371 0 0 0-.06-.303 1.649 1.649 0 0 0-.505-.503A2.766 2.766 0 0 0 10.2 0a.38.38 0 0 0-.278.1 1.108 1.108 0 0 0-.29.389c-.284.644-.775 1.027-1.474 1.113-.67.084-1.2-.186-1.595-.722a2.75 2.75 0 0 1-.272-.49c-.136-.3-.309-.411-.634-.384-.07.007-.14.018-.209.031-.483.087-.938.247-1.341.535-.07.05-.134.111-.193.175-.158.173-.196.366-.135.602.14.55.12 1.102-.075 1.638-.16.44-.506.692-.93.843-.443.158-.89.134-1.333-.02-.067-.023-.135-.04-.2-.064-.22-.077-.4-.008-.557.146-.2.194-.325.435-.434.685-.118.27-.206.553-.235.85-.002.013-.008.026-.013.038v.245c.016.057.03.115.05.17a.626.626 0 0 0 .372.404c.374.149.683.396.934.707.475.583.46 1.388-.028 1.975a2.474 2.474 0 0 1-.99.737c-.22.087-.294.275-.324.491l-.016.13v.032c.044.213.075.428.132.636.098.352.255.677.475.968a.702.702 0 0 0 .779.249c.287-.085.58-.148.881-.131.194.011.39.037.578.09.374.103.609.38.777.711.224.443.214.901.044 1.36-.04.112-.095.22-.13.334a.542.542 0 0 0 .115.548c.2.227.45.386.717.515.321.154.654.278 1.007.337.132.021.271.026.405.01.25-.03.411-.178.51-.412.232-.558.616-.978 1.197-1.171.576-.191 1.11-.079 1.575.319.273.232.467.517.61.847.051.123.15.229.244.327.101.104.24.12.38.104a3.166 3.166 0 0 0 1.602-.63c.212-.16.328-.37.295-.642a.738.738 0 0 0-.064-.209c-.225-.54-.248-1.076.013-1.61.097-.194.232-.36.392-.508.193-.176.433-.238.68-.29.4-.084.794-.034 1.18.081.437.13.757.04 1.03-.32.344-.452.523-.967.541-1.536a.618.618 0 0 0-.21-.497zm-7.78 1.889c-2.053-.005-3.726-1.703-3.721-3.757a3.739 3.739 0 0 1 3.728-3.726 3.737 3.737 0 0 1 3.74 3.741c-.009 2.069-1.69 3.748-3.747 3.742z"/></svg>